<mxfile host="app.diagrams.net" agent="Mozilla/5.0 (Windows NT 10.0; Win64; x64) AppleWebKit/537.36 (KHTML, like Gecko) Chrome/130.0.0.0 Safari/537.36" version="24.8.6">
  <diagram id="6TRoMIRDf_HUH_PHx8cA" name="페이지-2">
    <mxGraphModel dx="1235" dy="624" grid="1" gridSize="10" guides="1" tooltips="1" connect="1" arrows="1" fold="1" page="1" pageScale="1" pageWidth="827" pageHeight="1500" math="0" shadow="0">
      <root>
        <mxCell id="0" />
        <mxCell id="1" parent="0" />
        <mxCell id="5jUWK85pFe7vMP-oDTdi-3" value="" style="edgeStyle=orthogonalEdgeStyle;rounded=0;orthogonalLoop=1;jettySize=auto;html=1;fontFamily=Helvetica;fontSize=12;fontColor=default;fontStyle=0;" edge="1" parent="1" source="5jUWK85pFe7vMP-oDTdi-1">
          <mxGeometry relative="1" as="geometry">
            <mxPoint x="414" y="110" as="targetPoint" />
          </mxGeometry>
        </mxCell>
        <mxCell id="5jUWK85pFe7vMP-oDTdi-1" value="start" style="shape=mxgraph.flowchart.terminator;strokeWidth=2;gradientColor=none;gradientDirection=north;fontStyle=0;html=1;" vertex="1" parent="1">
          <mxGeometry x="354" y="30" width="120" height="30" as="geometry" />
        </mxCell>
        <mxCell id="rA9phgaspxwLRdarwpE0-6" value="" style="edgeStyle=orthogonalEdgeStyle;rounded=0;orthogonalLoop=1;jettySize=auto;html=1;fontFamily=Helvetica;fontSize=12;fontColor=default;fontStyle=0;" edge="1" parent="1" source="rA9phgaspxwLRdarwpE0-3" target="rA9phgaspxwLRdarwpE0-5">
          <mxGeometry relative="1" as="geometry" />
        </mxCell>
        <mxCell id="pAhHsgCGkFtytkjD8Cz8-56" style="edgeStyle=orthogonalEdgeStyle;rounded=0;orthogonalLoop=1;jettySize=auto;html=1;exitX=0.5;exitY=1;exitDx=0;exitDy=0;entryX=0.5;entryY=0;entryDx=0;entryDy=0;fontFamily=Helvetica;fontSize=12;fontColor=default;fontStyle=0;" edge="1" parent="1" source="rA9phgaspxwLRdarwpE0-3" target="pAhHsgCGkFtytkjD8Cz8-3">
          <mxGeometry relative="1" as="geometry">
            <Array as="points">
              <mxPoint x="418" y="480" />
              <mxPoint x="240" y="480" />
            </Array>
          </mxGeometry>
        </mxCell>
        <mxCell id="pAhHsgCGkFtytkjD8Cz8-57" style="edgeStyle=orthogonalEdgeStyle;rounded=0;orthogonalLoop=1;jettySize=auto;html=1;exitX=0.5;exitY=1;exitDx=0;exitDy=0;entryX=0.5;entryY=0;entryDx=0;entryDy=0;fontFamily=Helvetica;fontSize=12;fontColor=default;fontStyle=0;" edge="1" parent="1" source="rA9phgaspxwLRdarwpE0-3" target="pAhHsgCGkFtytkjD8Cz8-5">
          <mxGeometry relative="1" as="geometry">
            <Array as="points">
              <mxPoint x="418" y="480" />
              <mxPoint x="591" y="480" />
            </Array>
          </mxGeometry>
        </mxCell>
        <mxCell id="rA9phgaspxwLRdarwpE0-3" value="시간대 구분" style="rhombus;whiteSpace=wrap;html=1;strokeWidth=2;gradientColor=none;gradientDirection=north;fontStyle=0;" vertex="1" parent="1">
          <mxGeometry x="343" y="390" width="140" height="80" as="geometry" />
        </mxCell>
        <mxCell id="pAhHsgCGkFtytkjD8Cz8-64" style="edgeStyle=orthogonalEdgeStyle;rounded=0;orthogonalLoop=1;jettySize=auto;html=1;entryX=0.5;entryY=0;entryDx=0;entryDy=0;fontFamily=Helvetica;fontSize=12;fontColor=default;fontStyle=0;" edge="1" parent="1" source="rA9phgaspxwLRdarwpE0-5" target="pAhHsgCGkFtytkjD8Cz8-37">
          <mxGeometry relative="1" as="geometry" />
        </mxCell>
        <mxCell id="rA9phgaspxwLRdarwpE0-5" value="심야 1구간" style="whiteSpace=wrap;html=1;strokeWidth=2;gradientColor=none;gradientDirection=north;fontStyle=0;" vertex="1" parent="1">
          <mxGeometry x="353.5" y="503" width="120" height="60" as="geometry" />
        </mxCell>
        <mxCell id="pAhHsgCGkFtytkjD8Cz8-26" style="edgeStyle=orthogonalEdgeStyle;rounded=0;orthogonalLoop=1;jettySize=auto;html=1;entryX=0.5;entryY=0;entryDx=0;entryDy=0;fontFamily=Helvetica;fontSize=12;fontColor=default;fontStyle=0;" edge="1" parent="1" source="pAhHsgCGkFtytkjD8Cz8-2" target="pAhHsgCGkFtytkjD8Cz8-14">
          <mxGeometry relative="1" as="geometry" />
        </mxCell>
        <mxCell id="pAhHsgCGkFtytkjD8Cz8-28" style="edgeStyle=orthogonalEdgeStyle;rounded=0;orthogonalLoop=1;jettySize=auto;html=1;entryX=0.5;entryY=0;entryDx=0;entryDy=0;fontFamily=Helvetica;fontSize=12;fontColor=default;fontStyle=0;" edge="1" parent="1" source="pAhHsgCGkFtytkjD8Cz8-2" target="pAhHsgCGkFtytkjD8Cz8-12">
          <mxGeometry relative="1" as="geometry" />
        </mxCell>
        <mxCell id="pAhHsgCGkFtytkjD8Cz8-71" style="edgeStyle=orthogonalEdgeStyle;rounded=0;orthogonalLoop=1;jettySize=auto;html=1;entryX=0.5;entryY=0;entryDx=0;entryDy=0;fontFamily=Helvetica;fontSize=12;fontColor=default;fontStyle=0;" edge="1" parent="1" source="pAhHsgCGkFtytkjD8Cz8-2" target="pAhHsgCGkFtytkjD8Cz8-10">
          <mxGeometry relative="1" as="geometry">
            <Array as="points">
              <mxPoint x="414" y="160" />
              <mxPoint x="189" y="160" />
            </Array>
          </mxGeometry>
        </mxCell>
        <mxCell id="pAhHsgCGkFtytkjD8Cz8-72" style="edgeStyle=orthogonalEdgeStyle;rounded=0;orthogonalLoop=1;jettySize=auto;html=1;entryX=0.5;entryY=0;entryDx=0;entryDy=0;fontFamily=Helvetica;fontSize=12;fontColor=default;fontStyle=0;" edge="1" parent="1" source="pAhHsgCGkFtytkjD8Cz8-2" target="pAhHsgCGkFtytkjD8Cz8-16">
          <mxGeometry relative="1" as="geometry">
            <Array as="points">
              <mxPoint x="414" y="160" />
              <mxPoint x="639" y="160" />
            </Array>
          </mxGeometry>
        </mxCell>
        <mxCell id="pAhHsgCGkFtytkjD8Cz8-2" value="택시의 종류&lt;div&gt;입력&lt;/div&gt;" style="shape=parallelogram;perimeter=parallelogramPerimeter;whiteSpace=wrap;html=1;fixedSize=1;strokeColor=default;strokeWidth=2;align=center;verticalAlign=middle;fontFamily=Helvetica;fontSize=12;fontColor=default;fontStyle=0;fillColor=default;gradientColor=none;gradientDirection=north;" vertex="1" parent="1">
          <mxGeometry x="329" y="80" width="169" height="60" as="geometry" />
        </mxCell>
        <mxCell id="pAhHsgCGkFtytkjD8Cz8-66" style="edgeStyle=orthogonalEdgeStyle;rounded=0;orthogonalLoop=1;jettySize=auto;html=1;exitX=0.5;exitY=1;exitDx=0;exitDy=0;fontFamily=Helvetica;fontSize=12;fontColor=default;fontStyle=0;" edge="1" parent="1" source="pAhHsgCGkFtytkjD8Cz8-3" target="pAhHsgCGkFtytkjD8Cz8-37">
          <mxGeometry relative="1" as="geometry">
            <Array as="points">
              <mxPoint x="236" y="580" />
              <mxPoint x="414" y="580" />
            </Array>
          </mxGeometry>
        </mxCell>
        <mxCell id="pAhHsgCGkFtytkjD8Cz8-3" value="주간" style="whiteSpace=wrap;html=1;strokeWidth=2;gradientColor=none;gradientDirection=north;fontStyle=0;" vertex="1" parent="1">
          <mxGeometry x="175.5" y="503" width="120" height="60" as="geometry" />
        </mxCell>
        <mxCell id="pAhHsgCGkFtytkjD8Cz8-65" style="edgeStyle=orthogonalEdgeStyle;rounded=0;orthogonalLoop=1;jettySize=auto;html=1;entryX=0.5;entryY=0;entryDx=0;entryDy=0;fontFamily=Helvetica;fontSize=12;fontColor=default;fontStyle=0;" edge="1" parent="1" source="pAhHsgCGkFtytkjD8Cz8-5" target="pAhHsgCGkFtytkjD8Cz8-37">
          <mxGeometry relative="1" as="geometry">
            <Array as="points">
              <mxPoint x="587" y="580" />
              <mxPoint x="414" y="580" />
            </Array>
          </mxGeometry>
        </mxCell>
        <mxCell id="pAhHsgCGkFtytkjD8Cz8-5" value="심야 2구간" style="whiteSpace=wrap;html=1;strokeWidth=2;gradientColor=none;gradientDirection=north;fontStyle=0;" vertex="1" parent="1">
          <mxGeometry x="526.5" y="503" width="120" height="60" as="geometry" />
        </mxCell>
        <mxCell id="pAhHsgCGkFtytkjD8Cz8-55" style="edgeStyle=orthogonalEdgeStyle;rounded=0;orthogonalLoop=1;jettySize=auto;html=1;exitX=0.5;exitY=1;exitDx=0;exitDy=0;entryX=0.5;entryY=0;entryDx=0;entryDy=0;fontFamily=Helvetica;fontSize=12;fontColor=default;fontStyle=0;" edge="1" parent="1" source="pAhHsgCGkFtytkjD8Cz8-7" target="rA9phgaspxwLRdarwpE0-3">
          <mxGeometry relative="1" as="geometry" />
        </mxCell>
        <mxCell id="pAhHsgCGkFtytkjD8Cz8-7" value="시간대 정보 불러오기" style="shape=hexagon;perimeter=hexagonPerimeter2;whiteSpace=wrap;html=1;fixedSize=1;strokeColor=default;strokeWidth=2;align=center;verticalAlign=middle;fontFamily=Helvetica;fontSize=12;fontColor=default;fontStyle=0;fillColor=default;gradientColor=none;gradientDirection=north;" vertex="1" parent="1">
          <mxGeometry x="334" y="280" width="160" height="80" as="geometry" />
        </mxCell>
        <mxCell id="pAhHsgCGkFtytkjD8Cz8-51" style="edgeStyle=orthogonalEdgeStyle;rounded=0;orthogonalLoop=1;jettySize=auto;html=1;exitX=0.5;exitY=1;exitDx=0;exitDy=0;entryX=0.5;entryY=0;entryDx=0;entryDy=0;fontFamily=Helvetica;fontSize=12;fontColor=default;fontStyle=0;" edge="1" parent="1" source="pAhHsgCGkFtytkjD8Cz8-10" target="pAhHsgCGkFtytkjD8Cz8-7">
          <mxGeometry relative="1" as="geometry" />
        </mxCell>
        <mxCell id="pAhHsgCGkFtytkjD8Cz8-10" value="중형" style="whiteSpace=wrap;html=1;strokeWidth=2;fontStyle=0;gradientColor=none;gradientDirection=north;" vertex="1" parent="1">
          <mxGeometry x="129" y="180" width="120" height="60" as="geometry" />
        </mxCell>
        <mxCell id="pAhHsgCGkFtytkjD8Cz8-49" style="edgeStyle=orthogonalEdgeStyle;rounded=0;orthogonalLoop=1;jettySize=auto;html=1;exitX=0.5;exitY=1;exitDx=0;exitDy=0;entryX=0.5;entryY=0;entryDx=0;entryDy=0;fontFamily=Helvetica;fontSize=12;fontColor=default;fontStyle=0;" edge="1" parent="1" source="pAhHsgCGkFtytkjD8Cz8-12" target="pAhHsgCGkFtytkjD8Cz8-7">
          <mxGeometry relative="1" as="geometry" />
        </mxCell>
        <mxCell id="pAhHsgCGkFtytkjD8Cz8-12" value="대형승용/&lt;div&gt;모범&lt;/div&gt;" style="whiteSpace=wrap;html=1;strokeWidth=2;fontStyle=0;gradientColor=none;gradientDirection=north;" vertex="1" parent="1">
          <mxGeometry x="279" y="180" width="120" height="60" as="geometry" />
        </mxCell>
        <mxCell id="pAhHsgCGkFtytkjD8Cz8-53" style="edgeStyle=orthogonalEdgeStyle;rounded=0;orthogonalLoop=1;jettySize=auto;html=1;exitX=0.5;exitY=1;exitDx=0;exitDy=0;entryX=0.5;entryY=0;entryDx=0;entryDy=0;fontFamily=Helvetica;fontSize=12;fontColor=default;fontStyle=0;" edge="1" parent="1" source="pAhHsgCGkFtytkjD8Cz8-14" target="pAhHsgCGkFtytkjD8Cz8-7">
          <mxGeometry relative="1" as="geometry" />
        </mxCell>
        <mxCell id="pAhHsgCGkFtytkjD8Cz8-14" value="고급" style="whiteSpace=wrap;html=1;strokeWidth=2;fontStyle=0;gradientColor=none;gradientDirection=north;" vertex="1" parent="1">
          <mxGeometry x="429" y="180" width="120" height="60" as="geometry" />
        </mxCell>
        <mxCell id="pAhHsgCGkFtytkjD8Cz8-54" style="edgeStyle=orthogonalEdgeStyle;rounded=0;orthogonalLoop=1;jettySize=auto;html=1;exitX=0.5;exitY=1;exitDx=0;exitDy=0;entryX=0.5;entryY=0;entryDx=0;entryDy=0;fontFamily=Helvetica;fontSize=12;fontColor=default;fontStyle=0;" edge="1" parent="1" source="pAhHsgCGkFtytkjD8Cz8-16" target="pAhHsgCGkFtytkjD8Cz8-7">
          <mxGeometry relative="1" as="geometry" />
        </mxCell>
        <mxCell id="pAhHsgCGkFtytkjD8Cz8-16" value="대형승합" style="whiteSpace=wrap;html=1;strokeWidth=2;fontStyle=0;gradientColor=none;gradientDirection=north;" vertex="1" parent="1">
          <mxGeometry x="579" y="180" width="120" height="60" as="geometry" />
        </mxCell>
        <mxCell id="pAhHsgCGkFtytkjD8Cz8-77" style="edgeStyle=orthogonalEdgeStyle;rounded=0;orthogonalLoop=1;jettySize=auto;html=1;exitX=0.5;exitY=1;exitDx=0;exitDy=0;entryX=0.5;entryY=0;entryDx=0;entryDy=0;fontFamily=Helvetica;fontSize=12;fontColor=default;fontStyle=0;" edge="1" parent="1" source="pAhHsgCGkFtytkjD8Cz8-37" target="pAhHsgCGkFtytkjD8Cz8-38">
          <mxGeometry relative="1" as="geometry" />
        </mxCell>
        <mxCell id="pAhHsgCGkFtytkjD8Cz8-37" value="기존 운행 기록&lt;div&gt;불러오기&lt;/div&gt;" style="shape=hexagon;perimeter=hexagonPerimeter2;whiteSpace=wrap;html=1;fixedSize=1;strokeColor=default;strokeWidth=2;align=center;verticalAlign=middle;fontFamily=Helvetica;fontSize=12;fontColor=default;fontStyle=0;fillColor=default;gradientColor=none;gradientDirection=north;" vertex="1" parent="1">
          <mxGeometry x="333" y="598" width="160" height="72" as="geometry" />
        </mxCell>
        <mxCell id="pAhHsgCGkFtytkjD8Cz8-41" value="" style="edgeStyle=orthogonalEdgeStyle;rounded=0;orthogonalLoop=1;jettySize=auto;html=1;fontFamily=Helvetica;fontSize=12;fontColor=default;fontStyle=0;" edge="1" parent="1" source="pAhHsgCGkFtytkjD8Cz8-38" target="pAhHsgCGkFtytkjD8Cz8-40">
          <mxGeometry relative="1" as="geometry" />
        </mxCell>
        <mxCell id="pAhHsgCGkFtytkjD8Cz8-45" value="" style="edgeStyle=orthogonalEdgeStyle;rounded=0;orthogonalLoop=1;jettySize=auto;html=1;fontFamily=Helvetica;fontSize=12;fontColor=default;fontStyle=0;" edge="1" parent="1" source="pAhHsgCGkFtytkjD8Cz8-38" target="pAhHsgCGkFtytkjD8Cz8-44">
          <mxGeometry relative="1" as="geometry" />
        </mxCell>
        <mxCell id="pAhHsgCGkFtytkjD8Cz8-38" value="기존 운행기록&lt;div&gt;사용 여부&lt;/div&gt;" style="rhombus;whiteSpace=wrap;html=1;strokeWidth=2;fontStyle=0;gradientColor=none;gradientDirection=north;" vertex="1" parent="1">
          <mxGeometry x="339" y="690" width="154" height="80" as="geometry" />
        </mxCell>
        <mxCell id="pAhHsgCGkFtytkjD8Cz8-68" style="edgeStyle=orthogonalEdgeStyle;rounded=0;orthogonalLoop=1;jettySize=auto;html=1;exitX=0.5;exitY=1;exitDx=0;exitDy=0;entryX=1;entryY=0.5;entryDx=0;entryDy=0;fontFamily=Helvetica;fontSize=12;fontColor=default;fontStyle=0;" edge="1" parent="1" source="pAhHsgCGkFtytkjD8Cz8-40" target="pAhHsgCGkFtytkjD8Cz8-62">
          <mxGeometry relative="1" as="geometry" />
        </mxCell>
        <mxCell id="pAhHsgCGkFtytkjD8Cz8-40" value="기존 운행 기록&lt;div&gt;사용&lt;/div&gt;" style="whiteSpace=wrap;html=1;strokeWidth=2;fontStyle=0;gradientColor=none;gradientDirection=north;" vertex="1" parent="1">
          <mxGeometry x="542" y="700" width="120" height="60" as="geometry" />
        </mxCell>
        <mxCell id="pAhHsgCGkFtytkjD8Cz8-42" value="Yes" style="text;html=1;align=center;verticalAlign=middle;whiteSpace=wrap;rounded=0;fontFamily=Helvetica;fontSize=12;fontColor=default;fontStyle=0;" vertex="1" parent="1">
          <mxGeometry x="482" y="700" width="60" height="30" as="geometry" />
        </mxCell>
        <mxCell id="pAhHsgCGkFtytkjD8Cz8-43" value="No" style="text;html=1;align=center;verticalAlign=middle;whiteSpace=wrap;rounded=0;fontFamily=Helvetica;fontSize=12;fontColor=default;fontStyle=0;" vertex="1" parent="1">
          <mxGeometry x="356" y="770" width="60" height="30" as="geometry" />
        </mxCell>
        <mxCell id="pAhHsgCGkFtytkjD8Cz8-67" value="" style="edgeStyle=orthogonalEdgeStyle;rounded=0;orthogonalLoop=1;jettySize=auto;html=1;fontFamily=Helvetica;fontSize=12;fontColor=default;fontStyle=0;" edge="1" parent="1" target="pAhHsgCGkFtytkjD8Cz8-62">
          <mxGeometry relative="1" as="geometry">
            <mxPoint x="414" y="852" as="sourcePoint" />
          </mxGeometry>
        </mxCell>
        <mxCell id="pAhHsgCGkFtytkjD8Cz8-44" value="출발지 및 도착지&lt;div&gt;정보 입력&lt;/div&gt;" style="shape=parallelogram;perimeter=parallelogramPerimeter;whiteSpace=wrap;html=1;fixedSize=1;strokeWidth=2;fontStyle=0;gradientColor=none;gradientDirection=north;" vertex="1" parent="1">
          <mxGeometry x="334" y="800" width="164" height="60" as="geometry" />
        </mxCell>
        <mxCell id="pAhHsgCGkFtytkjD8Cz8-70" value="" style="edgeStyle=orthogonalEdgeStyle;rounded=0;orthogonalLoop=1;jettySize=auto;html=1;fontFamily=Helvetica;fontSize=12;fontColor=default;fontStyle=0;" edge="1" parent="1" source="pAhHsgCGkFtytkjD8Cz8-62" target="pAhHsgCGkFtytkjD8Cz8-69">
          <mxGeometry relative="1" as="geometry" />
        </mxCell>
        <mxCell id="pAhHsgCGkFtytkjD8Cz8-62" value="거리 정보 불러오기" style="shape=hexagon;perimeter=hexagonPerimeter2;whiteSpace=wrap;html=1;fixedSize=1;strokeColor=default;strokeWidth=2;align=center;verticalAlign=middle;fontFamily=Helvetica;fontSize=12;fontColor=default;fontStyle=0;fillColor=default;gradientColor=none;gradientDirection=north;" vertex="1" parent="1">
          <mxGeometry x="334" y="884" width="160" height="80" as="geometry" />
        </mxCell>
        <mxCell id="pAhHsgCGkFtytkjD8Cz8-74" value="" style="edgeStyle=orthogonalEdgeStyle;rounded=0;orthogonalLoop=1;jettySize=auto;html=1;fontFamily=Helvetica;fontSize=12;fontColor=default;fontStyle=0;" edge="1" parent="1" source="pAhHsgCGkFtytkjD8Cz8-69" target="pAhHsgCGkFtytkjD8Cz8-73">
          <mxGeometry relative="1" as="geometry" />
        </mxCell>
        <mxCell id="pAhHsgCGkFtytkjD8Cz8-69" value="택시 요금 계산하기" style="whiteSpace=wrap;html=1;strokeWidth=2;fontStyle=0;gradientColor=none;gradientDirection=north;" vertex="1" parent="1">
          <mxGeometry x="334" y="992" width="160" height="60" as="geometry" />
        </mxCell>
        <mxCell id="pAhHsgCGkFtytkjD8Cz8-76" value="" style="edgeStyle=orthogonalEdgeStyle;rounded=0;orthogonalLoop=1;jettySize=auto;html=1;fontFamily=Helvetica;fontSize=12;fontColor=default;fontStyle=0;" edge="1" parent="1" source="pAhHsgCGkFtytkjD8Cz8-73" target="pAhHsgCGkFtytkjD8Cz8-75">
          <mxGeometry relative="1" as="geometry" />
        </mxCell>
        <mxCell id="pAhHsgCGkFtytkjD8Cz8-73" value="택시 요금 출력" style="shape=parallelogram;perimeter=parallelogramPerimeter;whiteSpace=wrap;html=1;fixedSize=1;strokeWidth=2;fontStyle=0;gradientColor=none;gradientDirection=north;" vertex="1" parent="1">
          <mxGeometry x="329" y="1082" width="170" height="60" as="geometry" />
        </mxCell>
        <mxCell id="4lGq17hS_8D7WOMN87Gs-4" style="edgeStyle=orthogonalEdgeStyle;rounded=0;orthogonalLoop=1;jettySize=auto;html=1;fontFamily=Helvetica;fontSize=12;fontColor=default;fontStyle=0;" edge="1" parent="1" source="pAhHsgCGkFtytkjD8Cz8-75" target="pAhHsgCGkFtytkjD8Cz8-78">
          <mxGeometry relative="1" as="geometry" />
        </mxCell>
        <mxCell id="pAhHsgCGkFtytkjD8Cz8-75" value="운행 정보&lt;div&gt;저장 여부&lt;/div&gt;" style="rhombus;whiteSpace=wrap;html=1;strokeWidth=2;fontStyle=0;gradientColor=none;gradientDirection=north;" vertex="1" parent="1">
          <mxGeometry x="336.5" y="1160" width="155" height="80" as="geometry" />
        </mxCell>
        <mxCell id="pAhHsgCGkFtytkjD8Cz8-78" value="운행 정보 저장&lt;div&gt;(출발지/도착지)&lt;/div&gt;" style="whiteSpace=wrap;html=1;strokeWidth=2;fontStyle=0;gradientColor=none;gradientDirection=north;" vertex="1" parent="1">
          <mxGeometry x="570" y="1170" width="120" height="60" as="geometry" />
        </mxCell>
        <mxCell id="4lGq17hS_8D7WOMN87Gs-1" value="end" style="shape=mxgraph.flowchart.terminator;strokeWidth=2;gradientColor=none;gradientDirection=north;fontStyle=0;html=1;" vertex="1" parent="1">
          <mxGeometry x="353" y="1340" width="120" height="30" as="geometry" />
        </mxCell>
        <mxCell id="4lGq17hS_8D7WOMN87Gs-3" value="Yes" style="text;html=1;align=center;verticalAlign=middle;whiteSpace=wrap;rounded=0;fontFamily=Helvetica;fontSize=12;fontColor=default;fontStyle=0;" vertex="1" parent="1">
          <mxGeometry x="491.5" y="1170" width="60" height="30" as="geometry" />
        </mxCell>
        <mxCell id="4lGq17hS_8D7WOMN87Gs-5" style="edgeStyle=orthogonalEdgeStyle;rounded=0;orthogonalLoop=1;jettySize=auto;html=1;exitX=0.5;exitY=1;exitDx=0;exitDy=0;entryX=0.5;entryY=0;entryDx=0;entryDy=0;entryPerimeter=0;fontFamily=Helvetica;fontSize=12;fontColor=default;fontStyle=0;" edge="1" parent="1" source="pAhHsgCGkFtytkjD8Cz8-75" target="4lGq17hS_8D7WOMN87Gs-1">
          <mxGeometry relative="1" as="geometry" />
        </mxCell>
        <mxCell id="4lGq17hS_8D7WOMN87Gs-6" value="No" style="text;html=1;align=center;verticalAlign=middle;whiteSpace=wrap;rounded=0;fontFamily=Helvetica;fontSize=12;fontColor=default;fontStyle=0;" vertex="1" parent="1">
          <mxGeometry x="354" y="1240" width="60" height="30" as="geometry" />
        </mxCell>
        <mxCell id="4lGq17hS_8D7WOMN87Gs-7" style="edgeStyle=orthogonalEdgeStyle;rounded=0;orthogonalLoop=1;jettySize=auto;html=1;exitX=0.5;exitY=1;exitDx=0;exitDy=0;entryX=1;entryY=0.5;entryDx=0;entryDy=0;entryPerimeter=0;fontFamily=Helvetica;fontSize=12;fontColor=default;fontStyle=0;" edge="1" parent="1" source="pAhHsgCGkFtytkjD8Cz8-78" target="4lGq17hS_8D7WOMN87Gs-1">
          <mxGeometry relative="1" as="geometry" />
        </mxCell>
      </root>
    </mxGraphModel>
  </diagram>
</mxfile>
